<svg xmlns="http://www.w3.org/2000/svg" viewBox="0 0 352 319"><path fill="#f9f9f9" stroke="#f9f9f9" d="M147.53 38.587C94.173 46.878 49.847 89.562 41.751 140.448L40.549 148h-6.774c-3.726 0-6.775.186-6.775.414 0 .228 2.876 5.515 6.391 11.75 4.832 8.571 6.553 12.678 7.057 16.836 3.384 27.92 15.417 54.287 31.92 69.946L76 250.392v18.543l25.75.307c23.81.284 40.163 2.166 46.003 5.295.14.075-.034 2.235-.386 4.8l-.639 4.663h-12.797c-11.899 0-12.841.14-13.428 1.991-1.249 3.936-.491 4.009 41.556 4.009H203V284.063l-11.75-.281-11.75-.282-.303-4.159c-.335-4.598-.7-4.379 9.803-5.875 2.475-.352 7.95-1.501 12.167-2.553 4.216-1.052 9.054-1.913 10.75-1.913H215v23H49v12h237v-6c0-5.733-.111-6-2.5-6H281v-26l-8.75-.033-8.75-.034 2.361-1.966c1.464-1.22 3.85-1.967 6.282-1.967 5.517 0 10.003-2.141 13.582-6.482 3.151-3.823 6.122-12.005 4.828-13.297-1.491-1.489-10.329-.54-14.314 1.537l-4.064 2.119.771-2.689c.424-1.478 2.806-5.613 5.294-9.188 21.529-30.943 27.315-73.825 14.881-110.287-20.242-59.357-81.379-95.103-145.591-85.126M82 113.5v2.5h23v-5H82v2.5m0 10v2.5h23v-5H82v2.5m21.5 10.853C92.313 139.574 86.501 149.709 86.501 164c0 15.96 7.014 26.642 20.071 30.572l4.428 1.332v-31.952c0-24.9-.276-31.95-1.25-31.942-.687.005-3.5 1.06-6.25 2.343M82 209.5v2.5h23v-5H82v2.5m0 11v2.5h23v-5H82v2.5m0 13v2.5h23v-5H82v2.5m164.19 24.08c-1.532 1.073-2.19 2.568-2.19 4.977 0 5.053 2.477 4.382 4.008-1.086 1.482-5.294 1.162-5.979-1.818-3.891m11.892 1.946c-8.694 2.91-10.51 6.474-3.3 6.474 4.202 0 5.026-.386 7.539-3.536 3.911-4.901 3.166-5.417-4.239-2.938M236 282v10h12v-20h-12v10m21 0v10h11v-20h-11v10" fill-rule="evenodd"/><path fill="#478c8d" stroke="#478c8d" d="M164 87.526c-14.025 1.808-30.96 4.032-37.634 4.942l-12.133 1.655-4.367-3.054c-2.401-1.679-5.89-3.35-7.752-3.713l-3.387-.661.684 4.557.683 4.556-3.797.573c-2.088.315-7.51 1.085-12.047 1.711L76 99.23v21.798l-3.75-2.417c-7.673-4.945-10.693-2.942-8.991 5.961.393 2.06.177 2.409-1.137 1.834-4.392-1.924-13.122-1.563-13.122.542 0 2.097 6.836 8.052 9.243 8.052 1.965 0 2.632.626 3.085 2.892.319 1.591 2.962 5.7 5.875 9.131 8.855 10.43 8.941 10.579 8.606 14.936l-.309 4.026-6-7.392c-8.085-9.961-7.371-9.701-25.703-9.373l-15.702.28 6.328 11.364c6.795 12.202 7.603 13.097 11.846 13.121 2.405.013 2.692.324 2.179 2.366-1.395 5.558 8.708 9.73 13.243 5.469 2.276-2.138 2.285-2.219.447-4.25-2.678-2.959-5.855-8.126-4.473-7.275.64.395 1.316.263 1.501-.293.185-.555 3.936-1.121 8.335-1.256l7.999-.246v6.499c-.001 5.064-.332 6.52-1.5 6.597-3.355.222-4 .448-4 1.404 0 .55 1.327 1 2.948 1 2.841 0 2.91.109 1.902 3-.575 1.65-1.753 3-2.618 3C70.084 190 57 196.1 57 197.101c0 1.144 6.506 2.908 13.25 3.593l5.75.584V219.585l-4.25 1.148c-8.48 2.291-8.7 3.288-1.832 8.289l6.082 4.43V269h72.95l-.436 2.75c-.24 1.512-.706 4.887-1.036 7.5l-.601 4.75H121v5H203.139l-.319-2.25c-.308-2.167-.749-2.26-11.938-2.531l-11.619-.28-.631-4.609c-.348-2.535-.632-5.896-.632-7.47V269h13.86c7.624 0 15.949-.286 18.5-.636l4.64-.636V292H48.9l.3 5.75.3 5.75 32.25-.007c17.738-.005 70.725-.117 117.75-.25L285 303v-5.5c0-4.833-.242-5.5-2-5.5-1.893 0-2-.667-2-12.5V267h-18.374l2.802-2.925c1.541-1.608 3.42-2.687 4.175-2.397 7.34 2.816 20.397-8.299 20.397-17.363 0-2.496-.136-2.546-5.815-2.135-6.991.506-11.336 3.235-14.253 8.953-1.112 2.18-2.677 4.216-3.477 4.523-.8.307-1.455 1.547-1.455 2.755s-1.511 3.661-3.358 5.452c-3.334 3.231-3.417 3.251-11.546 2.816-4.504-.241-8.313-.605-8.465-.808-.152-.204-.934-2.162-1.738-4.352-1.793-4.883-5.964-7.669-8.634-5.767-5.344 3.806-10.652 3.881-15.259.215l-2.5-1.989 2.806-2.489c3.024-2.683 9.146-3.388 12.737-1.466 2.993 1.602 1.328-1.656-2.762-5.404-4.874-4.467-5.439-9.731-1.836-17.096 3.22-6.582 4.211-6.754 8.913-1.548 5.528 6.118 6.111 12.748 1.671 18.984-2.64 3.707-1.931 6.987 1.998 9.242 1.612.925 3.839 3.171 4.948 4.991l2.018 3.308.003-76.233.004-76.233-5.25-2.631c-2.887-1.447-5.925-3.195-6.75-3.884-3.985-3.328-37.064-19.509-39.66-19.4-1.562.066-14.315 1.599-28.34 3.407M50.553 112.882c-1.935 4.29-1.17 7.182 2.404 9.095 7.156 3.83 10-4.174 3.508-9.873-4.33-3.803-3.816-3.87-5.912.778M82 113v3h31.433c30.507 0 31.451-.059 32.064-1.991 1.233-3.883.225-4.009-32.056-4.009H82v3m0 11v3h31.5c26.526 0 31.5-.224 31.5-1.418 0-.78.273-2.13.607-3 .546-1.422-2.633-1.582-31.5-1.582H82v3m24.882 8.32c-33.672 12.599-25.607 66.26 9.535 63.439 25.532-2.05 36.881-37.394 18.053-56.223-6.978-6.977-19.484-10.249-27.588-7.216M82 210v3h30.418c32.981 0 33.582-.065 33.582-3.607V207H82v3m0 10v3.028l31.75-.264 31.75-.264v-5l-31.75-.264-31.75-.264V220m0 14v3h31.5c26.526 0 31.5-.224 31.5-1.418 0-.78.273-2.13.607-3 .546-1.422-2.633-1.582-31.5-1.582H82v3m47 17c0 5.28.234 6 1.948 6 1.644 0 1.995-.817 2.25-5.25l.302-5.25h7l.302 5.25c.255 4.433.606 5.25 2.25 5.25 1.714 0 1.948-.72 1.948-6v-6h-16v6m6 1c0 3.333.333 4 2 4s2-.667 2-4-.333-4-2-4-2 .667-2 4m101 30v10h12v-20h-12v10m20 0v10h12v-20h-12v10" fill-rule="evenodd"/><path fill="#215063" stroke="#215063" d="M188 85.06c-3.025.45-14.5 1.956-25.5 3.348s-34.728 4.441-52.73 6.776L77.041 99.43l-.271 43.535c-.148 23.944-.153 62.098-.009 84.785l.261 41.25h72.208l-.674 5.75c-.371 3.163-.903 6.537-1.183 7.5-.469 1.615.733 1.75 15.621 1.75h16.129l-.626-4.75c-.344-2.613-.857-5.988-1.141-7.5l-.515-2.75H195v-63.162l20.728.73c11.4.402 21.412.776 22.25.831.837.056 1.522-.574 1.522-1.399 0-1.238-3.842-1.787-22-3.144-12.1-.904-22.113-1.692-22.25-1.75-.407-.173-.285-57.106.122-57.106s38.727 7.717 42.378 8.534c1.542.346 2.25.041 2.25-.968 0-1.746-1.597-2.219-26.25-7.775L195 139.565v-27.783c0-15.28-.338-27.727-.75-27.66-.412.067-3.225.489-6.25.938M82 113v3h64v-6H82v3m0 10.5v3.5h64v-7H82v3.5m24.764 8.436c-21.757 7.024-28.917 37.925-12.83 55.376 11.28 12.238 30.297 12.011 41.542-.496 14.546-16.179 10.477-43.622-7.863-53.024-4.546-2.33-16.173-3.365-20.849-1.856M82 210v3h64v-6H82v3m0 10v3h64v-6H82v3m0 14v3h64v-6H82v3m47 16.46c0 6.309.088 6.54 2.5 6.54 2.333 0 2.5-.333 2.5-5v-5h7v5c0 4.692.157 5 2.548 5 2.49 0 2.541-.141 2.25-6.25l-.298-6.25-8.25-.29-8.25-.291v6.541m6 2.11c0 4.166.198 4.541 2.25 4.25 3.66-.52 3.949-8.82.307-8.82-2.37 0-2.557.335-2.557 4.57M215 280v13h21v-22h12v22h8v-22.095l6.25.297 6.25.298.284 10.75.284 10.75H280v-26h-65v13m-93.333 4.667c-.367.366-.667 1.491-.667 2.5 0 1.68 1.045 1.833 12.5 1.833H146v-5h-11.833c-6.509 0-12.134.3-12.5.667M50 298v5h65v-10H50v5" fill-rule="evenodd"/></svg>