<?xml version="1.0" encoding="UTF-8"?>
<svg version="1.1" xmlns="http://www.w3.org/2000/svg" width="352" height="319">
<path d="M0 0 C0.83273437 0.69867188 1.66546875 1.39734375 2.5234375 2.1171875 C25.98255809 22.40030407 41.43195184 52.94400414 43.87109375 83.90234375 C45.33794101 107.77194912 41.90187921 130.52167082 31 152 C30.30583984 153.36898437 30.30583984 153.36898437 29.59765625 154.765625 C26.60618131 160.4470469 23.25825041 165.66278587 19.41796875 170.80859375 C18.04562902 172.92948243 17.43290527 174.53187774 17 177 C17.804375 176.525625 18.60875 176.05125 19.4375 175.5625 C24.53663806 173.32603594 29.63325911 172.21108637 35 174 C34.43162925 180.96254174 32.12287166 185.61176938 27.5 190.8125 C23.74691709 193.76479659 19.3281993 194.01400486 14.70703125 194.54296875 C11.78817058 194.84623233 11.78817058 194.84623233 9 197 C14.28 197.33 19.56 197.66 25 198 C25 206.58 25 215.16 25 224 C26.65 224 28.3 224 30 224 C30 227.96 30 231.92 30 236 C-48.21 236 -126.42 236 -207 236 C-207 232.04 -207 228.08 -207 224 C-152.22 224 -97.44 224 -41 224 C-41 216.41 -41 208.82 -41 201 C-47.07839265 202.1051623 -53.0067231 203.18663956 -59 204.5625 C-64.99214455 205.87204152 -70.88107596 206.6378596 -77 207 C-76.67 209.64 -76.34 212.28 -76 215 C-64.615 215.495 -64.615 215.495 -53 216 C-53 217.98 -53 219.96 -53 222 C-80.06 222 -107.12 222 -135 222 C-136 218 -136 218 -135 216 C-126.42 216 -117.84 216 -109 216 C-108.67 212.7 -108.34 209.4 -108 206 C-110.1346875 205.8453125 -110.1346875 205.8453125 -112.3125 205.6875 C-116.06328873 205.41570372 -119.36387034 204.59751329 -122.93945312 203.5 C-129.08561943 201.80890619 -134.88315825 201.52658807 -141.23046875 201.48828125 C-142.34690262 201.47033005 -143.46333649 201.45237885 -144.61360168 201.43388367 C-148.13819737 201.38021229 -151.66266106 201.34602396 -155.1875 201.3125 C-157.59441924 201.27928882 -160.00132116 201.24479572 -162.40820312 201.20898438 C-168.27201687 201.12451114 -174.13584866 201.05598086 -180 201 C-180.02578125 199.68499512 -180.0515625 198.36999023 -180.078125 197.01513672 C-180.13441721 195.27828763 -180.19176429 193.54147251 -180.25 191.8046875 C-180.26417969 190.93932373 -180.27835938 190.07395996 -180.29296875 189.18237305 C-180.45175702 185.03601425 -180.59843227 182.62081656 -182.89282227 179.07373047 C-184.3687443 177.70878902 -185.89892407 176.40130202 -187.46484375 175.140625 C-202.78436726 162.20518759 -211.73610073 137.45674075 -214.2265625 118.24438477 C-215.97909815 104.79861337 -220.46330999 95.03195829 -227.96191406 83.77392578 C-229 82 -229 82 -229 80 C-224.38 80 -219.76 80 -215 80 C-215 77.69 -215 75.38 -215 73 C-214.63623047 70.69921875 -214.63623047 70.69921875 -214.1171875 68.6875 C-213.92286133 67.92985352 -213.72853516 67.17220703 -213.52832031 66.39160156 C-213.20492676 65.20775879 -213.20492676 65.20775879 -212.875 64 C-212.6490918 63.16694336 -212.42318359 62.33388672 -212.19042969 61.47558594 C-207.1951177 43.60589941 -199.17721141 28.03794584 -187 14 C-185.95392578 12.75476563 -185.95392578 12.75476563 -184.88671875 11.484375 C-179.47937606 5.22223036 -173.57221851 0.01143415 -167 -5 C-165.84951172 -5.89138672 -165.84951172 -5.89138672 -164.67578125 -6.80078125 C-116.21739278 -42.58923453 -45.43150723 -38.92015115 0 0 Z M-8 188 C-10.13875077 189.01760473 -10.13875077 189.01760473 -12 191 C-12.33380814 194.62563814 -12.33380814 194.62563814 -12 198 C-11.01 198 -10.02 198 -9 198 C-7.04968392 193.05250648 -7.04968392 193.05250648 -8 188 Z M8 189 C6.03476349 189.53788583 4.07784749 190.10624069 2.125 190.6875 C1.03445313 191.00074219 -0.05609375 191.31398438 -1.1796875 191.63671875 C-4.20588211 192.75380338 -4.20588211 192.75380338 -5.3828125 195.64453125 C-5.58648437 196.42183594 -5.79015625 197.19914063 -6 198 C0.18103284 198.79757179 0.18103284 198.79757179 5.8125 196.76953125 C7.41571745 195.02991926 7.41571745 195.02991926 9 192 C8.67 191.01 8.34 190.02 8 189 Z " fill="#4B878F" transform="translate(256,68)"/>
<path d="M0 0 C0.83273437 0.69867188 1.66546875 1.39734375 2.5234375 2.1171875 C25.98255809 22.40030407 41.43195184 52.94400414 43.87109375 83.90234375 C45.33794101 107.77194912 41.90187921 130.52167082 31 152 C30.30583984 153.36898437 30.30583984 153.36898437 29.59765625 154.765625 C26.60061406 160.45762024 23.25412424 165.61912057 19.3203125 170.7109375 C17.79054155 173.36314395 17.73390353 174.98778792 18 178 C17.01 178.33 16.02 178.66 15 179 C14.938125 179.721875 14.87625 180.44375 14.8125 181.1875 C13.68647906 185.08526481 12.18245284 186.46702733 9 189 C4.78312803 191.01091662 0.42679474 192.52440175 -4 194 C-4.33 194.99 -4.66 195.98 -5 197 C-2.03 197.33 0.94 197.66 4 198 C4 198.33 4 198.66 4 199 C-2.27 199 -8.54 199 -15 199 C-15.99 196.03 -16.98 193.06 -18 190 C-20.74200442 187.71215917 -20.74200442 187.71215917 -23.4375 188.25 C-25.9681769 188.87341848 -25.9681769 188.87341848 -27.875 190.125 C-31.15842056 191.4769967 -33.59400193 190.77680658 -37 190 C-39.9375 188.4375 -39.9375 188.4375 -42 187 C-40.63016497 183.83884224 -40.0109362 183.0072908 -37 181 C-34.84375 180.734375 -34.84375 180.734375 -32.5 180.75 C-31.7265625 180.74484375 -30.953125 180.7396875 -30.15625 180.734375 C-28 181 -28 181 -25 183 C-25.19471111 181.05000871 -25.19471111 181.05000871 -26 179 C-27.32407669 178.31513275 -28.65909241 177.65129797 -30 177 C-33.11611625 174.1435601 -34.30898082 171.90047115 -34.5625 167.75 C-34.35469223 162.37410333 -31.91197672 158.39916484 -29 154 C-25.46340908 154.56002416 -24.04440308 155.67774324 -21.8125 158.4375 C-21.04873047 159.36369141 -21.04873047 159.36369141 -20.26953125 160.30859375 C-17.53116658 163.95693807 -17.38174081 167.57583358 -18 172 C-18.89453125 173.87109375 -18.89453125 173.87109375 -20 175.625 C-22.11724408 179.19784938 -22.39591923 180.94182791 -22 185 C-20.88625 185.3403125 -20.88625 185.3403125 -19.75 185.6875 C-16.37226761 187.29959955 -15.00336171 188.85186018 -13 192 C-12.25 195.3125 -12.25 195.3125 -12 198 C-11.01 198 -10.02 198 -9 198 C-8.67 195.03 -8.34 192.06 -8 189 C-9.98 189.99 -9.98 189.99 -12 191 C-12.33 141.83 -12.66 92.66 -13 42 C-20.59 38.04 -28.18 34.08 -36 30 C-40.1142 27.78536914 -44.22143584 25.56802967 -48.3125 23.3125 C-50.14179598 22.30835488 -51.97121618 21.30443601 -53.80078125 20.30078125 C-54.56559814 19.87966064 -55.33041504 19.45854004 -56.1184082 19.0246582 C-65.52806006 13.9004453 -82.03209064 18.8559283 -92.33914185 20.35437012 C-97.05772548 21.03985201 -101.77906926 21.7059101 -106.5 22.375 C-107.45878555 22.51137878 -108.41757111 22.64775757 -109.40541077 22.78826904 C-118.31948372 24.05347351 -127.24080481 25.25984885 -136.16720581 26.43469238 C-137.73056795 26.64048756 -139.29382598 26.84707566 -140.85696411 27.05456543 C-149.13488083 28.15283781 -157.41834588 29.19206622 -165.71484375 30.140625 C-166.45585831 30.22737488 -167.19687286 30.31412476 -167.96034241 30.40350342 C-172.03671821 30.85933257 -175.87325898 31 -180 31 C-180 38.26 -180 45.52 -180 53 C-182.97 51.35 -185.94 49.7 -189 48 C-189.99 48 -190.98 48 -192 48 C-192.33 51.63 -192.66 55.26 -193 59 C-193.99 58.67 -194.98 58.34 -196 58 C-197.72795352 57.93197033 -199.45835365 57.91504355 -201.1875 57.9375 C-202.08855469 57.94652344 -202.98960937 57.95554687 -203.91796875 57.96484375 C-204.60503906 57.97644531 -205.29210937 57.98804687 -206 58 C-204.7345464 61.90181526 -203.59658191 63.94481034 -200 66 C-198.7315625 66.0928125 -198.7315625 66.0928125 -197.4375 66.1875 C-196.633125 66.455625 -195.82875 66.72375 -195 67 C-194.3220594 68.93757098 -193.64462095 70.87532002 -192.97045898 72.81420898 C-191.04323346 77.15495115 -187.44618695 80.31135024 -184.11914062 83.62304688 C-180.93179033 87.04390269 -179.63951601 89.17580349 -179.63671875 93.94140625 C-179.72883529 95.2965523 -179.83979857 96.65120729 -180 98 C-184.21459373 94.04881838 -187.69725667 89.67620362 -191.23046875 85.109375 C-192.8290786 82.91970191 -192.8290786 82.91970191 -195 82 C-197.55362604 81.91341431 -200.0795442 81.88437484 -202.6328125 81.90234375 C-203.38464813 81.9037587 -204.13648376 81.90517365 -204.91110229 81.90663147 C-207.3157751 81.91223535 -209.72035527 81.92478843 -212.125 81.9375 C-213.75390491 81.9425145 -215.38281127 81.9470775 -217.01171875 81.95117188 C-221.00784827 81.96220603 -225.00390842 81.97947321 -229 82 C-229 81.34 -229 80.68 -229 80 C-224.38 80 -219.76 80 -215 80 C-215 77.69 -215 75.38 -215 73 C-214.63623047 70.69921875 -214.63623047 70.69921875 -214.1171875 68.6875 C-213.92286133 67.92985352 -213.72853516 67.17220703 -213.52832031 66.39160156 C-213.20492676 65.20775879 -213.20492676 65.20775879 -212.875 64 C-212.6490918 63.16694336 -212.42318359 62.33388672 -212.19042969 61.47558594 C-207.1951177 43.60589941 -199.17721141 28.03794584 -187 14 C-185.95392578 12.75476563 -185.95392578 12.75476563 -184.88671875 11.484375 C-179.47937606 5.22223036 -173.57221851 0.01143415 -167 -5 C-165.84951172 -5.89138672 -165.84951172 -5.89138672 -164.67578125 -6.80078125 C-116.21739278 -42.58923453 -45.43150723 -38.92015115 0 0 Z " fill="#BDDF91" transform="translate(256,68)"/>
<path d="M0 0 C0 59.07 0 118.14 0 179 C7.92 179 15.84 179 24 179 C24.99 183.62 25.98 188.24 27 193 C38.385 193.495 38.385 193.495 50 194 C50 195.98 50 197.96 50 200 C22.94 200 -4.12 200 -32 200 C-33 196 -33 196 -32 194 C-23.42 194 -14.84 194 -6 194 C-5.67 190.7 -5.34 187.4 -5 184 C-7.1346875 183.8453125 -7.1346875 183.8453125 -9.3125 183.6875 C-13.06328873 183.41570372 -16.36387034 182.59751329 -19.93945312 181.5 C-26.08561943 179.80890619 -31.88315825 179.52658807 -38.23046875 179.48828125 C-39.34690262 179.47033005 -40.46333649 179.45237885 -41.61360168 179.43388367 C-45.13819737 179.38021229 -48.66266106 179.34602396 -52.1875 179.3125 C-54.59441924 179.27928882 -57.00132116 179.24479572 -59.40820312 179.20898438 C-65.27201687 179.12451114 -71.13584866 179.05598086 -77 179 C-77.02578125 177.68499512 -77.0515625 176.36999023 -77.078125 175.01513672 C-77.13441721 173.27828763 -77.19176429 171.54147251 -77.25 169.8046875 C-77.26417969 168.93932373 -77.27835938 168.07395996 -77.29296875 167.18237305 C-77.45175702 163.03601425 -77.59843227 160.62081656 -79.89282227 157.07373047 C-81.3687443 155.70878902 -82.89892407 154.40130202 -84.46484375 153.140625 C-100.91784101 139.24810959 -108.95855702 113.54171682 -111.6875 93.125 C-113.2727161 81.44431272 -117.70773148 72.51581358 -124.05371094 62.68212891 C-125 61 -125 61 -125 59 C-120.39194479 58.87605579 -115.78486719 58.78550325 -111.17553711 58.7253418 C-109.60895886 58.70025453 -108.04249701 58.66617585 -106.47631836 58.62280273 C-104.21959691 58.56188774 -101.96442706 58.53373501 -99.70703125 58.51171875 C-99.01100296 58.48591232 -98.31497467 58.4601059 -97.59785461 58.43351746 C-93.742672 58.43131253 -92.17490327 58.85469017 -89.171875 61.34960938 C-88.45515625 62.22423828 -87.7384375 63.09886719 -87 64 C-86.18917969 64.95519531 -85.37835938 65.91039062 -84.54296875 66.89453125 C-83.76566406 67.85746094 -82.98835938 68.82039063 -82.1875 69.8125 C-81.39730469 70.78832031 -80.60710937 71.76414062 -79.79296875 72.76953125 C-79.20128906 73.50558594 -78.60960937 74.24164063 -78 75 C-77.39035477 71.76888029 -77.18187976 70.13448479 -78 67 C-80.30722324 63.97555006 -82.84926816 61.33598213 -85.5078125 58.6171875 C-89.54452914 54.37800231 -92 51.01701168 -92 45 C-93.051875 44.95875 -94.10375 44.9175 -95.1875 44.875 C-100.22972739 43.71776748 -101.25673596 42.28635006 -104 38 C-103.67 37.01 -103.34 36.02 -103 35 C-101.37509046 34.97301811 -99.75005367 34.95361243 -98.125 34.9375 C-97.22007813 34.92589844 -96.31515625 34.91429687 -95.3828125 34.90234375 C-93 35 -93 35 -91 36 C-90.505 31.05 -90.505 31.05 -90 26 C-88.68 25.67 -87.36 25.34 -86 25 C-83.36 26.65 -80.72 28.3 -78 30 C-77.67 23.07 -77.34 16.14 -77 9 C-73.13861328 8.52820313 -73.13861328 8.52820313 -69.19921875 8.046875 C-65.69510784 7.61623578 -62.19128645 7.18327059 -58.6875 6.75 C-57.32718658 6.58209457 -57.32718658 6.58209457 -55.93939209 6.41079712 C-43.41043975 4.85976392 -30.91303817 3.20537282 -18.4519043 1.16894531 C-17.4700415 1.01393555 -16.48817871 0.85892578 -15.4765625 0.69921875 C-14.240271 0.49558716 -14.240271 0.49558716 -12.97900391 0.2878418 C-8.67166563 -0.12834832 -4.32739844 0 0 0 Z " fill="#1C4358" transform="translate(153,90)"/>
<path d="M0 0 C0 18.48 0 36.96 0 56 C2.97 56.33 5.94 56.66 9 57 C11.86505284 57.57367129 14.6942851 58.17675991 17.53515625 58.84765625 C18.29928329 59.02380966 19.06341034 59.19996307 19.85069275 59.38145447 C22.25576382 59.93703268 24.65912666 60.49962818 27.0625 61.0625 C28.70757378 61.44382781 30.35275526 61.82469128 31.99804688 62.20507812 C35.99996103 63.13136445 40.00036085 64.06394131 44 65 C44.33 66.32 44.66 67.64 45 69 C38.3871372 68.14118665 31.85960693 66.88276325 25.3125 65.625 C23.65057617 65.31175781 23.65057617 65.31175781 21.95507812 64.9921875 C20.85228516 64.78078125 19.74949219 64.569375 18.61328125 64.3515625 C17.63141846 64.16416504 16.64955566 63.97676758 15.63793945 63.78369141 C10.39515227 62.65428084 5.20293 61.3007325 0 60 C0 79.14 0 98.28 0 118 C6.6 118 13.2 118 20 118 C24.60712946 118.27157816 29.16149568 118.57289394 33.75 119 C34.85214844 119.09539062 35.95429688 119.19078125 37.08984375 119.2890625 C39.72734145 119.51841013 42.36389403 119.75526522 45 120 C45 121.32 45 122.64 45 124 C30.15 123.34 15.3 122.68 0 122 C0 142.79 0 163.58 0 185 C-5.61 185 -11.22 185 -17 185 C-17.33 186.32 -17.66 187.64 -18 189 C-18 187.68 -18 186.36 -18 185 C-25.92 185 -33.84 185 -42 185 C-42 125.93 -42 66.86 -42 6 C-42.66 5.67 -43.32 5.34 -44 5 C-38.69874348 4.28289234 -33.39682508 3.57097354 -28.09423828 2.86376953 C-26.29196553 2.62266822 -24.48987884 2.38017168 -22.68798828 2.13623047 C-20.09195321 1.78502749 -17.49528151 1.43891423 -14.8984375 1.09375 C-13.69808365 0.92969666 -13.69808365 0.92969666 -12.47348022 0.7623291 C-11.71314484 0.66222534 -10.95280945 0.56212158 -10.16943359 0.45898438 C-9.50769135 0.37015991 -8.8459491 0.28133545 -8.16415405 0.18981934 C-5.45244472 -0.04802642 -2.72212015 0 0 0 Z " fill="#265B6B" transform="translate(195,84)"/>
<path d="M0 0 C0.33 16.83 0.66 33.66 1 51 C-19.6875 53.75 -19.6875 53.75 -26.45263672 54.64819336 C-35.26694689 55.82059475 -44.08022035 56.99612804 -52.8828125 58.25390625 C-64.93976913 59.97348743 -76.82551902 61.50810178 -89 62 C-89 69.26 -89 76.52 -89 84 C-91.97 82.35 -94.94 80.7 -98 79 C-98.99 79 -99.98 79 -101 79 C-101.33 82.63 -101.66 86.26 -102 90 C-102.99 89.67 -103.98 89.34 -105 89 C-106.72795352 88.93197033 -108.45835365 88.91504355 -110.1875 88.9375 C-111.08855469 88.94652344 -111.98960938 88.95554687 -112.91796875 88.96484375 C-113.60503906 88.97644531 -114.29210937 88.98804687 -115 89 C-113.7345464 92.90181526 -112.59658191 94.94481034 -109 97 C-107.7315625 97.0928125 -107.7315625 97.0928125 -106.4375 97.1875 C-105.633125 97.455625 -104.82875 97.72375 -104 98 C-103.3220594 99.93757098 -102.64462095 101.87532002 -101.97045898 103.81420898 C-100.04323346 108.15495115 -96.44618695 111.31135024 -93.11914062 114.62304688 C-89.93179033 118.04390269 -88.63951601 120.17580349 -88.63671875 124.94140625 C-88.72883529 126.2965523 -88.83979857 127.65120729 -89 129 C-93.21459373 125.04881838 -96.69725667 120.67620362 -100.23046875 116.109375 C-101.8290786 113.91970191 -101.8290786 113.91970191 -104 113 C-106.55362604 112.91341431 -109.0795442 112.88437484 -111.6328125 112.90234375 C-112.38464813 112.9037587 -113.13648376 112.90517365 -113.91110229 112.90663147 C-116.3157751 112.91223535 -118.72035527 112.92478843 -121.125 112.9375 C-122.75390491 112.9425145 -124.38281127 112.9470775 -126.01171875 112.95117188 C-130.00784827 112.96220603 -134.00390842 112.97947321 -138 113 C-138 112.34 -138 111.68 -138 111 C-133.38 111 -128.76 111 -124 111 C-124 108.69 -124 106.38 -124 104 C-123.63623047 101.69921875 -123.63623047 101.69921875 -123.1171875 99.6875 C-122.92286133 98.92985352 -122.72853516 98.17220703 -122.52832031 97.39160156 C-122.20492676 96.20775879 -122.20492676 96.20775879 -121.875 95 C-121.6490918 94.16694336 -121.42318359 93.33388672 -121.19042969 92.47558594 C-116.1951177 74.60589941 -108.17721141 59.03794584 -96 45 C-94.95392578 43.75476563 -94.95392578 43.75476563 -93.88671875 42.484375 C-88.47937606 36.22223036 -82.57221851 31.01143415 -76 26 C-74.84951172 25.10861328 -74.84951172 25.10861328 -73.67578125 24.19921875 C-52.3054375 8.41636726 -26.4659926 0 0 0 Z " fill="#83CDA8" transform="translate(165,37)"/>
<path d="M0 0 C-0.56837075 6.96254174 -2.87712834 11.61176938 -7.5 16.8125 C-11.25308291 19.76479659 -15.6718007 20.01400486 -20.29296875 20.54296875 C-23.21182942 20.84623233 -23.21182942 20.84623233 -26 23 C-20.72 23.33 -15.44 23.66 -10 24 C-10 32.58 -10 41.16 -10 50 C-8.35 50 -6.7 50 -5 50 C-5 53.96 -5 57.92 -5 62 C-83.21 62 -161.42 62 -242 62 C-242 58.04 -242 54.08 -242 50 C-187.22 50 -132.44 50 -76 50 C-76 41.42 -76 32.84 -76 24 C-60.94523573 23.92034516 -46.01939236 23.98664341 -31 25 C-30.71125 24.21625 -30.4225 23.4325 -30.125 22.625 C-29 20 -29 20 -27 18 C-26.87625 17.38125 -26.7525 16.7625 -26.625 16.125 C-25.79076129 13.2885884 -24.07358618 12.07358618 -22 10 C-21.690625 9.175 -21.38125 8.35 -21.0625 7.5 C-19.64744652 4.17046239 -18.02926507 2.95219305 -15 1 C-9.51196652 -1.17450383 -5.66567299 -0.99397772 0 0 Z " fill="#4B7F8D" transform="translate(291,242)"/>
<path d="M0 0 C0.33 0 0.66 0 1 0 C1 56.1 1 112.2 1 170 C0.67 170 0.34 170 0 170 C0.03222656 168.73285156 0.06445312 167.46570313 0.09765625 166.16015625 C0.3570577 156.77150716 0.3570577 156.77150716 -2.75390625 148.19140625 C-4.27802711 146.78921506 -5.85165466 145.43935726 -7.46484375 144.140625 C-23.91784101 130.24810959 -31.95855702 104.54171682 -34.6875 84.125 C-36.2727161 72.44431272 -40.70773148 63.51581358 -47.05371094 53.68212891 C-48 52 -48 52 -48 50 C-43.39194479 49.87605579 -38.78486719 49.78550325 -34.17553711 49.7253418 C-32.60895886 49.70025453 -31.04249701 49.66617585 -29.47631836 49.62280273 C-27.21959691 49.56188774 -24.96442706 49.53373501 -22.70703125 49.51171875 C-22.01100296 49.48591232 -21.31497467 49.4601059 -20.59785461 49.43351746 C-16.742672 49.43131253 -15.17490327 49.85469017 -12.171875 52.34960938 C-11.45515625 53.22423828 -10.7384375 54.09886719 -10 55 C-9.18917969 55.95519531 -8.37835938 56.91039062 -7.54296875 57.89453125 C-6.37701172 59.33892578 -6.37701172 59.33892578 -5.1875 60.8125 C-4.39730469 61.78832031 -3.60710937 62.76414063 -2.79296875 63.76953125 C-2.20128906 64.50558594 -1.60960937 65.24164063 -1 66 C-0.39035477 62.76888029 -0.18187976 61.13448479 -1 58 C-3.30722324 54.97555006 -5.84926816 52.33598213 -8.5078125 49.6171875 C-12.54452914 45.37800231 -15 42.01701168 -15 36 C-16.051875 35.95875 -17.10375 35.9175 -18.1875 35.875 C-23.22972739 34.71776748 -24.25673596 33.28635006 -27 29 C-26.67 28.01 -26.34 27.02 -26 26 C-24.37509046 25.97301811 -22.75005367 25.95361243 -21.125 25.9375 C-19.76761719 25.92009766 -19.76761719 25.92009766 -18.3828125 25.90234375 C-16 26 -16 26 -14 27 C-13.67 23.7 -13.34 20.4 -13 17 C-11.68 16.67 -10.36 16.34 -9 16 C-6.36 17.65 -3.72 19.3 -1 21 C-0.67 14.07 -0.34 7.14 0 0 Z " fill="#38AC7E" transform="translate(76,99)"/>
<path d="M0 0 C6.1402788 4.43084706 9.89074408 11.76048463 12.06640625 18.890625 C13.78075622 30.3350694 11.5346723 40.35468138 4.87890625 49.765625 C-0.25934384 55.94481368 -6.85237148 59.40866625 -14.81640625 60.1640625 C-23.78389343 60.44497174 -30.10091716 59.08204258 -36.96484375 53.12890625 C-44.15319823 45.62073091 -47.29501949 35.85371766 -47.14453125 25.60546875 C-46.42439784 16.337085 -42.52937854 8.20637989 -35.75390625 1.84375 C-24.38686067 -7.41828714 -12.49082596 -7.16645368 0 0 Z " fill="#C9C9D4" transform="translate(131.93359375,136.109375)"/>
<path d="M0 0 C2.70272533 2.87164566 3.94791837 4.30991841 4.25 8.3125 C4.1675 9.199375 4.085 10.08625 4 11 C5.299375 10.87625 5.299375 10.87625 6.625 10.75 C10.75988007 11.05628741 12.74642697 12.52108722 16 15 C14.59027904 19.22916288 11.84675507 20.91060462 8 23 C5.0625 23.3125 5.0625 23.3125 3 23 C3.144375 24.051875 3.28875 25.10375 3.4375 26.1875 C3.50830683 31.8722772 0.43240552 36.05104106 -2.46875 40.75390625 C-4.20749611 44.43987058 -4.28434663 46.9734486 -4 51 C-3.71278076 50.52578613 -3.42556152 50.05157227 -3.12963867 49.56298828 C-1.82223455 47.41287092 -0.5050131 45.26893647 0.8125 43.125 C1.49022461 42.00544922 1.49022461 42.00544922 2.18164062 40.86328125 C2.84389648 39.79013672 2.84389648 39.79013672 3.51953125 38.6953125 C3.92276611 38.03547363 4.32600098 37.37563477 4.74145508 36.69580078 C6 35 6 35 9 33 C11.63549805 32.77294922 11.63549805 32.77294922 14.76171875 32.8046875 C16.43911133 32.81435547 16.43911133 32.81435547 18.15039062 32.82421875 C19.31763672 32.84097656 20.48488281 32.85773438 21.6875 32.875 C23.45577148 32.88853516 23.45577148 32.88853516 25.25976562 32.90234375 C28.17338026 32.92593577 31.08658892 32.9588546 34 33 C32.48294454 38.07814355 30.36375372 42.59637147 27.875 47.25 C27.52179688 47.96929687 27.16859375 48.68859375 26.8046875 49.4296875 C24.06714744 54.50554302 24.06714744 54.50554302 21.04516602 55.90576172 C18.93359375 56.4453125 18.93359375 56.4453125 15 57 C13.741875 57.20625 12.48375 57.4125 11.1875 57.625 C-3.05554367 59.11391778 -3.05554367 59.11391778 -7.5 56.0625 C-8.325 55.381875 -9.15 54.70125 -10 54 C-10.99 53.67 -11.98 53.34 -13 53 C-13.0992502 48.96166211 -13.17164562 44.92380128 -13.21972656 40.88452148 C-13.2397799 39.51199977 -13.26703028 38.13956283 -13.30175781 36.76733398 C-13.35054552 34.78927956 -13.37088876 32.81058881 -13.390625 30.83203125 C-13.41157227 29.64327393 -13.43251953 28.4545166 -13.45410156 27.22973633 C-12.90967763 23.35759427 -11.71095661 21.76068458 -9 19 C-6.75 17.6875 -6.75 17.6875 -5 17 C-5.66 16.01 -6.32 15.02 -7 14 C-7.5625 11.3125 -7.5625 11.3125 -7 8 C-4.90142231 5.09548474 -2.52473323 2.53761453 0 0 Z " fill="#7FC660" transform="translate(257,106)"/>
<path d="M0 0 C4.455 0.99 4.455 0.99 9 2 C8.9175 2.928125 8.835 3.85625 8.75 4.8125 C8.69066452 7.99616753 8.69066452 7.99616753 10.5625 9.875 C13.89575029 11.41342321 16.36192072 11.31912976 20 11 C21.3303125 10.443125 21.3303125 10.443125 22.6875 9.875 C25 9 25 9 26.875 9.8125 C27.57625 10.204375 28.2775 10.59625 29 11 C31.32495277 11.38749213 33.65851268 11.72982839 36 12 C35.5625 14.8125 35.5625 14.8125 34 18 C31.8150797 19.09024421 29.67954817 19.70655943 27.32421875 20.34375 C24.34513175 21.18490398 21.74735538 22.59281798 19 24 C18.34 24 17.68 24 17 24 C17.33 24.66 17.66 25.32 18 26 C23.96569479 27.84394203 29.78793666 28.48232806 36 29 C36 35.27 36 41.54 36 48 C32.04 48.99 28.08 49.98 24 51 C27.06919826 54.42659628 27.06919826 54.42659628 30.890625 56.84765625 C33.35846248 58.00633604 34.46350537 58.70393882 36 61 C36.91995305 66.59662288 36.39085993 72.37285787 36 78 C16.30611228 62.49630116 5.08385996 37.29983815 1 13 C0.49195845 8.66670446 0.15164793 4.35987787 0 0 Z " fill="#84CEA9" transform="translate(40,172)"/>
<path d="M0 0 C0 20.79 0 41.58 0 63 C-8.40726632 63 -11.94383373 61.03821863 -17.765625 55.2421875 C-23.69895655 48.08023679 -26.77669712 38.71365165 -26.31640625 29.43359375 C-24.95185766 18.93836203 -20.61575877 10.62910579 -12.3125 4 C-7.9655027 0.7566445 -5.61034811 0 0 0 Z " fill="#EBEAEF" transform="translate(111,132)"/>
<path d="M0 0 C3.53659092 0.56002416 4.95559692 1.67774324 7.1875 4.4375 C7.69667969 5.05496094 8.20585937 5.67242187 8.73046875 6.30859375 C11.46883342 9.95693807 11.61825919 13.57583358 11 18 C10.10546875 19.87109375 10.10546875 19.87109375 9 21.625 C6.88275592 25.19784938 6.60408077 26.94182791 7 31 C7.7425 31.226875 8.485 31.45375 9.25 31.6875 C12.62773239 33.29959955 13.99663829 34.85186018 16 38 C16.75 41.3125 16.75 41.3125 17 44 C17.99 44 18.98 44 20 44 C20.05945801 43.29504395 20.11891602 42.59008789 20.18017578 41.86376953 C20.4691671 38.61461301 20.79681122 35.37042237 21.125 32.125 C21.2178125 31.01640625 21.310625 29.9078125 21.40625 28.765625 C22.31342119 20.19789711 24.53407164 12.84493507 31.25439453 7.05908203 C36.23168365 3.39974882 39.62054384 2.59486404 46 1 C46.495 12.385 46.495 12.385 47 24 C46.01 24.33 45.02 24.66 44 25 C43.9071875 26.0828125 43.9071875 26.0828125 43.8125 27.1875 C42.68647906 31.08526481 41.18245284 32.46702733 38 35 C33.78312803 37.01091662 29.42679474 38.52440175 25 40 C24.67 40.99 24.34 41.98 24 43 C26.97 43.33 29.94 43.66 33 44 C33 44.33 33 44.66 33 45 C26.73 45 20.46 45 14 45 C12.515 40.545 12.515 40.545 11 36 C8.25799558 33.71215917 8.25799558 33.71215917 5.5625 34.25 C3.0318231 34.87341848 3.0318231 34.87341848 1.125 36.125 C-2.15842056 37.4769967 -4.59400193 36.77680658 -8 36 C-10.9375 34.4375 -10.9375 34.4375 -13 33 C-11.63016497 29.83884224 -11.0109362 29.0072908 -8 27 C-5.84375 26.734375 -5.84375 26.734375 -3.5 26.75 C-2.7265625 26.74484375 -1.953125 26.7396875 -1.15625 26.734375 C1 27 1 27 4 29 C3.80528889 27.05000871 3.80528889 27.05000871 3 25 C1.67592331 24.31513275 0.34090759 23.65129797 -1 23 C-4.11611625 20.1435601 -5.30898082 17.90047115 -5.5625 13.75 C-5.35469223 8.37410333 -2.91197672 4.39916484 0 0 Z " fill="#EAAC73" transform="translate(227,222)"/>
<path d="M0 0 C21.12 0 42.24 0 64 0 C64 8.25 64 16.5 64 25 C60.37 25 56.74 25 53 25 C52.67 18.4 52.34 11.8 52 5 C48.04 4.67 44.08 4.34 40 4 C40 10.93 40 17.86 40 25 C37.36 25 34.72 25 32 25 C32 18.4 32 11.8 32 5 C28.04 5 24.08 5 20 5 C20 11.6 20 18.2 20 25 C13.4 25 6.8 25 0 25 C0 16.75 0 8.5 0 0 Z " fill="#1C4358" transform="translate(216,267)"/>
<path d="M0 0 C21.45 0 42.9 0 65 0 C65 3.3 65 6.6 65 10 C43.55 10 22.1 10 0 10 C0 6.7 0 3.4 0 0 Z " fill="#295E6E" transform="translate(50,293)"/>
<path d="M0 0 C4.455 0.99 4.455 0.99 9 2 C8.9175 2.928125 8.835 3.85625 8.75 4.8125 C8.69066452 7.99616753 8.69066452 7.99616753 10.5625 9.875 C13.89575029 11.41342321 16.36192072 11.31912976 20 11 C21.3303125 10.443125 21.3303125 10.443125 22.6875 9.875 C25 9 25 9 26.875 9.8125 C27.57625 10.204375 28.2775 10.59625 29 11 C31.32495277 11.38749213 33.65851268 11.72982839 36 12 C35.5625 14.8125 35.5625 14.8125 34 18 C31.8150797 19.09024421 29.67954817 19.70655943 27.32421875 20.34375 C24.34513175 21.18490398 21.74735538 22.59281798 19 24 C18.34 24 17.68 24 17 24 C18.25541557 26.51083114 19.50063488 26.87125446 22 28 C21.34 28 20.68 28 20 28 C19.896875 28.886875 19.79375 29.77375 19.6875 30.6875 C18.95480063 34.21777879 18.3486296 36.25993213 16 39 C12.3125 39.8125 12.3125 39.8125 9 40 C3.48130548 26.86856087 0.68500672 14.21979467 0 0 Z " fill="#68C39C" transform="translate(40,172)"/>
<path d="M0 0 C4.80469688 0.28262923 8.74306696 2.53699303 12 6 C12.64621121 9.14886513 12.83164661 11.24212055 12.68359375 14.36328125 C12.67368912 15.15526413 12.66378448 15.94724701 12.65357971 16.76322937 C12.61453284 19.28157398 12.52674906 21.79548419 12.4375 24.3125 C12.40237269 26.02402537 12.37043614 27.7356194 12.34179688 29.44726562 C12.26480518 33.63320711 12.14410619 37.81585311 12 42 C-2.42158616 27.58141209 -2.42158616 27.58141209 -3.0625 22.875 C-3.041875 21.92625 -3.02125 20.9775 -3 20 C-4.5778125 19.938125 -4.5778125 19.938125 -6.1875 19.875 C-11.22972739 18.71776748 -12.25673596 17.28635006 -15 13 C-14.67 12.01 -14.34 11.02 -14 10 C-12.37509046 9.97301811 -10.75005367 9.95361243 -9.125 9.9375 C-8.22007813 9.92589844 -7.31515625 9.91429688 -6.3828125 9.90234375 C-4 10 -4 10 -2 11 C-1.93941406 10.28972656 -1.87882812 9.57945313 -1.81640625 8.84765625 C-1.73261719 7.92855469 -1.64882813 7.00945312 -1.5625 6.0625 C-1.48128906 5.14597656 -1.40007813 4.22945313 -1.31640625 3.28515625 C-1 1 -1 1 0 0 Z " fill="#46B487" transform="translate(64,115)"/>
<path d="M0 0 C3.53659092 0.56002416 4.95559692 1.67774324 7.1875 4.4375 C7.69667969 5.05496094 8.20585937 5.67242187 8.73046875 6.30859375 C11.46883342 9.95693807 11.61825919 13.57583358 11 18 C10.10546875 19.87109375 10.10546875 19.87109375 9 21.625 C6.88275592 25.19784938 6.60408077 26.94182791 7 31 C7.7425 31.226875 8.485 31.45375 9.25 31.6875 C12.62773239 33.29959955 13.99663829 34.85186018 16 38 C16.75 41.3125 16.75 41.3125 17 44 C17.99 44 18.98 44 20 44 C20.185625 42.5459375 20.185625 42.5459375 20.375 41.0625 C20.58125 40.051875 20.7875 39.04125 21 38 C23.6666419 36.66667905 25.16680303 37.32897967 28 38 C27.01 38.66 26.02 39.32 25 40 C24.67 40.99 24.34 41.98 24 43 C26.97 43.33 29.94 43.66 33 44 C33 44.33 33 44.66 33 45 C26.73 45 20.46 45 14 45 C12.515 40.545 12.515 40.545 11 36 C8.25799558 33.71215917 8.25799558 33.71215917 5.5625 34.25 C3.0318231 34.87341848 3.0318231 34.87341848 1.125 36.125 C-2.15842056 37.4769967 -4.59400193 36.77680658 -8 36 C-10.9375 34.4375 -10.9375 34.4375 -13 33 C-11.63016497 29.83884224 -11.0109362 29.0072908 -8 27 C-5.84375 26.734375 -5.84375 26.734375 -3.5 26.75 C-2.7265625 26.74484375 -1.953125 26.7396875 -1.15625 26.734375 C1 27 1 27 4 29 C3.80528889 27.05000871 3.80528889 27.05000871 3 25 C1.67592331 24.31513275 0.34090759 23.65129797 -1 23 C-4.11611625 20.1435601 -5.30898082 17.90047115 -5.5625 13.75 C-5.35469223 8.37410333 -2.91197672 4.39916484 0 0 Z " fill="#BEE097" transform="translate(227,222)"/>
<path d="M0 0 C0 1.98 0 3.96 0 6 C-27.06 6 -54.12 6 -82 6 C-83 2 -83 2 -82 0 C-74.85240508 -0.15656077 -67.70468149 -0.30462942 -60.55670929 -0.4429636 C-57.23464017 -0.5074987 -53.9127239 -0.57537371 -50.59082031 -0.64819336 C-33.68021309 -1.01679075 -16.89014748 -0.97010708 0 0 Z " fill="#609299" transform="translate(203,284)"/>
<path d="M0 0 C21.12 0 42.24 0 64 0 C64 2.31 64 4.62 64 7 C42.88 7 21.76 7 0 7 C0 4.69 0 2.38 0 0 Z " fill="#B5BBC7" transform="translate(82,120)"/>
<path d="M0 0 C7 0 7 0 8.4375 1.375 C8.953125 1.91125 9.46875 2.4475 10 3 C12.00271937 3.66051633 14.00187795 4.12540547 16.0625 4.5703125 C18 5 18 5 21 6 C20.6875 7.875 20.6875 7.875 20 10 C16.5647952 12.29013653 15.014669 12.17842973 11 12 C11.04640625 12.56847656 11.0928125 13.13695312 11.140625 13.72265625 C11.37934585 18.82957723 10.94173517 21.45370299 8.00390625 25.7734375 C6.07434147 30.05301697 6.11319571 35.03311982 5.78515625 39.671875 C5.52605469 40.77015625 5.26695312 41.8684375 5 43 C3.35 43.99 1.7 44.98 0 46 C0 30.82 0 15.64 0 0 Z " fill="#86C966" transform="translate(244,213)"/>
<path d="M0 0 C0.33 0 0.66 0 1 0 C1 56.1 1 112.2 1 170 C0.67 170 0.34 170 0 170 C0.02731201 168.95134766 0.05462402 167.90269531 0.08276367 166.82226562 C0.17014551 162.90051196 0.18417933 158.98121963 0.17700195 155.05859375 C0.18394269 153.36699113 0.21030926 151.67534516 0.25708008 149.984375 C0.8186098 139.8155369 0.8186098 139.8155369 -3.52880859 131.12890625 C-6.50251523 128.9308625 -6.50251523 128.9308625 -9.63549805 127.29492188 C-10.80592651 126.65393555 -10.80592651 126.65393555 -12 126 C-12 125.34 -12 124.68 -12 124 C-7.32097716 121.7981069 -5.37483542 121 0 121 C0 114.73 0 108.46 0 102 C-1.464375 102.061875 -2.92875 102.12375 -4.4375 102.1875 C-9.76630273 102.21030515 -14.09520425 100.9903519 -19 99 C-19 98.34 -19 97.68 -19 97 C-17.11076602 95.98758753 -15.21330056 94.99052575 -13.3125 94 C-12.25675781 93.443125 -11.20101562 92.88625 -10.11328125 92.3125 C-7.07773738 91.0327726 -5.23973174 90.71148957 -2 91 C-0.89365186 86.52363371 -0.82822912 82.1209079 -0.79467773 77.5378418 C-0.77982834 76.278536 -0.77982834 76.278536 -0.76467896 74.99378967 C-0.73318402 72.22896103 -0.70835415 69.46411522 -0.68359375 66.69921875 C-0.66301385 64.77821923 -0.6420171 62.85722412 -0.62062073 60.93623352 C-0.56550708 55.88764027 -0.51605068 50.83900687 -0.46777344 45.79034424 C-0.41748013 40.63558391 -0.36183497 35.48088165 -0.30664062 30.32617188 C-0.19919005 20.21749757 -0.09771612 10.10877277 0 0 Z " fill="#437C78" transform="translate(76,99)"/>
<path d="M0 0 C-0.56837075 6.96254174 -2.87712834 11.61176938 -7.5 16.8125 C-11.25308291 19.76479659 -15.6718007 20.01400486 -20.29296875 20.54296875 C-23.21182942 20.84623233 -23.21182942 20.84623233 -26 23 C-20.72 23.33 -15.44 23.66 -10 24 C-10 24.33 -10 24.66 -10 25 C-16.93 25 -23.86 25 -31 25 C-29 20 -29 20 -27 18 C-26.87625 17.38125 -26.7525 16.7625 -26.625 16.125 C-25.79076129 13.2885884 -24.07358618 12.07358618 -22 10 C-21.690625 9.175 -21.38125 8.35 -21.0625 7.5 C-19.64744652 4.17046239 -18.02926507 2.95219305 -15 1 C-9.51196652 -1.17450383 -5.66567299 -0.99397772 0 0 Z " fill="#42AA83" transform="translate(291,242)"/>
<path d="M0 0 C0.25 5.625 0.25 5.625 -2 9 C-1.34 9.721875 -0.68 10.44375 0 11.1875 C2 14 2 14 2.5 16.625 C2 19 2 19 0.4375 20.8125 C-2.97121067 22.47315391 -5.24368031 22.45334893 -9 22 C-13.36969581 19.69148146 -14.75661434 18.48677131 -17 14 C-24.92 15.485 -24.92 15.485 -33 17 C-33 15.35 -33 13.7 -33 12 C-27.60539047 9.72858546 -22.73842251 9.79586639 -17 10 C-16.773125 9.2575 -16.54625 8.515 -16.3125 7.75 C-12.77440121 0.33684063 -7.27676241 -0.11736714 0 0 Z " fill="#84C864" transform="translate(277,179)"/>
<path d="M0 0 C21.12 0 42.24 0 64 0 C64 1.98 64 3.96 64 6 C42.88 6 21.76 6 0 6 C0 4.02 0 2.04 0 0 Z " fill="#C6C8D2" transform="translate(82,231)"/>
<path d="M0 0 C21.12 0 42.24 0 64 0 C64 1.98 64 3.96 64 6 C42.88 6 21.76 6 0 6 C0 4.02 0 2.04 0 0 Z " fill="#C3C5D1" transform="translate(82,217)"/>
<path d="M0 0 C21.12 0 42.24 0 64 0 C64 1.98 64 3.96 64 6 C42.88 6 21.76 6 0 6 C0 4.02 0 2.04 0 0 Z " fill="#C0C3CE" transform="translate(82,207)"/>
<path d="M0 0 C21.12 0 42.24 0 64 0 C64 1.98 64 3.96 64 6 C42.88 6 21.76 6 0 6 C0 4.02 0 2.04 0 0 Z " fill="#C1C4CF" transform="translate(82,110)"/>
<path d="M0 0 C0 5.61 0 11.22 0 17 C-7 17 -7 17 -10.25 15.875 C-11.1575 15.58625 -12.065 15.2975 -13 15 C-13.99 15.66 -14.98 16.32 -16 17 C-20.3132535 17.47925039 -22.30586782 17.47260063 -25.9375 15 C-26.618125 14.34 -27.29875 13.68 -28 13 C-27.67 11.02 -27.34 9.04 -27 7 C-24.36 7 -21.72 7 -19 7 C-19.33 5.35 -19.66 3.7 -20 2 C-13.1772779 -0.09929911 -7.13755375 -0.16221713 0 0 Z " fill="#52BB8E" transform="translate(76,167)"/>
<path d="M0 0 C2.449833 2.24867369 4.06154495 4.5420305 5.6875 7.4375 C6.12449219 8.19933594 6.56148437 8.96117188 7.01171875 9.74609375 C8 12 8 12 8 16 C9.175625 16.433125 9.175625 16.433125 10.375 16.875 C13 18 13 18 15 20 C14.96712417 22.72869407 14.43602229 25.2966618 14 28 C10.11728647 28 9.10340379 27.78367479 5.890625 26.03125 C5.13652344 25.62519531 4.38242188 25.21914062 3.60546875 24.80078125 C2.82816406 24.37152344 2.05085937 23.94226563 1.25 23.5 C0.45722656 23.07074219 -0.33554688 22.64148438 -1.15234375 22.19921875 C-3.10571989 21.1401594 -5.05458609 20.07359437 -7 19 C-7.27664199 13.4848182 -7.19720766 10.29037674 -4.0625 5.5625 C-3.51722656 4.71816406 -2.97195312 3.87382813 -2.41015625 3.00390625 C-1 1 -1 1 0 0 Z " fill="#79C35D" transform="translate(220,75)"/>
<path d="M0 0 C1.2264624 0.00008057 2.4529248 0.00016113 3.71655273 0.00024414 C13.8522701 0.0604513 23.94631872 0.5105968 34.0625 1.125 C35.13769897 1.19021347 35.13769897 1.19021347 36.23461914 1.25674438 C44.50217812 1.76676384 52.7559573 2.37737915 61 3.1875 C61 4.5075 61 5.8275 61 7.1875 C51.81125116 7.01873521 42.62324526 6.82898871 33.43549728 6.61244583 C29.16920732 6.51255482 24.90301552 6.41989702 20.63623047 6.34375 C16.51845399 6.26999628 12.40150237 6.17726836 8.28443146 6.07137299 C6.71371176 6.03430955 5.14281531 6.00408422 3.57183075 5.98081207 C1.37092135 5.94703956 -0.82810437 5.88897525 -3.02832031 5.82519531 C-4.28074524 5.79854797 -5.53317017 5.77190063 -6.82354736 5.7444458 C-10.50345804 5.09922579 -11.70525398 4.06298357 -14 1.1875 C-9.87962422 -0.87268789 -4.52314507 -0.0027657 0 0 Z " fill="#1E495C" transform="translate(179,200.8125)"/>
<path d="M0 0 C0.495 1.98 0.495 1.98 1 4 C-5.69858174 3.13472602 -12.30744781 1.84224558 -18.9375 0.5625 C-20.07896484 0.34529297 -21.22042969 0.12808594 -22.39648438 -0.09570312 C-31.44571988 -1.83654392 -31.44571988 -1.83654392 -35.828125 -3.12890625 C-42.92713708 -4.97940382 -50.66459284 -4.42421833 -57.96850586 -4.53173828 C-60.04824636 -4.56544712 -62.12752612 -4.61051371 -64.20703125 -4.65625 C-65.4391333 -4.67494141 -66.67123535 -4.69363281 -67.94067383 -4.71289062 C-71 -5 -71 -5 -74 -7 C-74 -7.66 -74 -8.32 -74 -9 C-54.47915666 -18.76042167 -19.45311581 -4.9676525 0 0 Z " fill="#1D475B" transform="translate(239,149)"/>
<path d="M0 0 C4.455 0.99 4.455 0.99 9 2 C8.9175 2.928125 8.835 3.85625 8.75 4.8125 C8.69066452 7.99616753 8.69066452 7.99616753 10.5625 9.875 C13.89575029 11.41342321 16.36192072 11.31912976 20 11 C20.9075 10.62875 21.815 10.2575 22.75 9.875 C23.4925 9.58625 24.235 9.2975 25 9 C25.99 9.66 26.98 10.32 28 11 C28 11.66 28 12.32 28 13 C26.35546875 14.40234375 26.35546875 14.40234375 24.1875 15.9375 C21.18541834 18.05130685 21.18541834 18.05130685 18.625 20.6484375 C16.17766485 22.68396145 13.93978225 22.51936655 10.8125 22.6875 C9.18248047 22.78611328 9.18248047 22.78611328 7.51953125 22.88671875 C6.68808594 22.92410156 5.85664062 22.96148437 5 23 C4.67 24.32 4.34 25.64 4 27 C1.84337234 17.95301478 0.44805451 9.30099365 0 0 Z " fill="#84CEA9" transform="translate(40,172)"/>
<path d="M0 0 C3.96 0 7.92 0 12 0 C12 6.6 12 13.2 12 20 C8.04 20 4.08 20 0 20 C0 13.4 0 6.8 0 0 Z " fill="#EBEAEF" transform="translate(236,272)"/>
<path d="M0 0 C3.63 0 7.26 0 11 0 C11 6.6 11 13.2 11 20 C7.37 20 3.74 20 0 20 C0 13.4 0 6.8 0 0 Z " fill="#EBEAEF" transform="translate(257,272)"/>
<path d="M0 0 C5.44915694 0 6.79064263 0.86745498 11 4 C10.5065852 6.56575696 9.79858996 8.3610579 8.51171875 10.66796875 C6.30137362 15.53986642 6.22817801 20.35015421 5.8203125 25.63671875 C5.54960937 26.74660156 5.27890625 27.85648438 5 29 C3.35 29.99 1.7 30.98 0 32 C0 21.44 0 10.88 0 0 Z " fill="#65BB99" transform="translate(244,227)"/>
<path d="M0 0 C5.61 0 11.22 0 17 0 C17 3.96 17 7.92 17 12 C11.39 12 5.78 12 0 12 C0 8.04 0 4.08 0 0 Z " fill="#B6BBC7" transform="translate(129,245)"/>
<path d="M0 0 C0.33 0 0.66 0 1 0 C1 5.28 1 10.56 1 16 C-6.08009042 16.29915875 -11.43328099 15.66475554 -18 13 C-18 12.34 -18 11.68 -18 11 C-16.11076602 9.98758753 -14.21330056 8.99052575 -12.3125 8 C-11.25675781 7.443125 -10.20101562 6.88625 -9.11328125 6.3125 C-6.07773738 5.0327726 -4.23973174 4.71148957 -1 5 C-0.67 3.35 -0.34 1.7 0 0 Z " fill="#45B287" transform="translate(75,185)"/>
<path d="M0 0 C7.59 0 15.18 0 23 0 C23 1.98 23 3.96 23 6 C15.41 6 7.82 6 0 6 C0 4.02 0 2.04 0 0 Z " fill="#E7E8ED" transform="translate(82,231)"/>
<path d="M0 0 C-0.60020015 6.30210153 -2.95594933 10.15062082 -7.625 14.375 C-10 16 -10 16 -12 16 C-12 11.38 -12 6.76 -12 2 C-7.14786828 0.38262276 -4.81798756 -0.22942798 0 0 Z " fill="#7EC55F" transform="translate(256,168)"/>
<path d="M0 0 C8.25 0 16.5 0 25 0 C25 1.65 25 3.3 25 5 C16.42 5 7.84 5 -1 5 C-0.67 3.35 -0.34 1.7 0 0 Z " fill="#2D5E6D" transform="translate(121,284)"/>
<path d="M0 0 C3.2542015 2.83430453 4.5206753 4.68607774 5 9 C1.2626144 11.4915904 -0.57331583 11.45793285 -5 11 C-7.9375 9 -7.9375 9 -10 7 C-9.67 5.02 -9.34 3.04 -9 1 C-7.700625 1.020625 -6.40125 1.04125 -5.0625 1.0625 C-3.70834367 1.08399454 -2.35243917 1.07148199 -1 1 C-0.67 0.67 -0.34 0.34 0 0 Z " fill="#47B486" transform="translate(58,173)"/>
<path d="M0 0 C9.57 0 19.14 0 29 0 C21.30219918 5.13186721 10.0709767 5.46314628 1 6 C0.67 7.32 0.34 8.64 0 10 C0 6.7 0 3.4 0 0 Z " fill="#BDDE99" transform="translate(178,269)"/>
<path d="M0 0 C7.59 0 15.18 0 23 0 C23 1.65 23 3.3 23 5 C15.41 5 7.82 5 0 5 C0 3.35 0 1.7 0 0 Z " fill="#E9E8EF" transform="translate(82,218)"/>
<path d="M0 0 C7.59 0 15.18 0 23 0 C23 1.65 23 3.3 23 5 C15.41 5 7.82 5 0 5 C0 3.35 0 1.7 0 0 Z " fill="#EAEAF1" transform="translate(82,207)"/>
<path d="M0 0 C7.59 0 15.18 0 23 0 C23 1.65 23 3.3 23 5 C15.41 5 7.82 5 0 5 C0 3.35 0 1.7 0 0 Z " fill="#E9E9EF" transform="translate(82,121)"/>
<path d="M0 0 C7.59 0 15.18 0 23 0 C23 1.65 23 3.3 23 5 C15.41 5 7.82 5 0 5 C0 3.35 0 1.7 0 0 Z " fill="#EAEAF0" transform="translate(82,111)"/>
<path d="M0 0 C2.4375 1.25 2.4375 1.25 4.4375 4.25 C4.625 7.875 4.625 7.875 4.4375 11.25 C3.4375 12.25 3.4375 12.25 0.5625 12.5 C-2.5625 12.25 -2.5625 12.25 -4.375 11.125 C-6.0179776 8.53082484 -6.30922568 6.28929183 -6.5625 3.25 C-6.2325 2.26 -5.9025 1.27 -5.5625 0.25 C-2.5625 -0.75 -2.5625 -0.75 0 0 Z " fill="#48B487" transform="translate(55.5625,110.75)"/>
<path d="M0 0 C0.33 3.96 0.66 7.92 1 12 C2.65 12 4.3 12 6 12 C6 12.33 6 12.66 6 13 C-1.92 13.495 -1.92 13.495 -10 14 C-8.8708134 6.09569378 -8.8708134 6.09569378 -5.5625 3.0625 C-4.94503906 2.47597656 -4.32757813 1.88945313 -3.69140625 1.28515625 C-2 0 -2 0 0 0 Z " fill="#5BBA96" transform="translate(132,79)"/>
<path d="M0 0 C0 4.29 0 8.58 0 13 C-4.31226893 10.63247981 -8.33715165 8.32986214 -12 5 C-12 4.34 -12 3.68 -12 3 C-7.32097716 0.7981069 -5.37483542 0 0 0 Z " fill="#3FAF82" transform="translate(76,220)"/>
<path d="M0 0 C5.47723991 0.43817919 8.62769863 1.69648341 13 5 C14.32 5.99 15.64 6.98 17 8 C9.08 8.495 9.08 8.495 1 9 C0.67 6.03 0.34 3.06 0 0 Z " fill="#47B089" transform="translate(99,87)"/>
<path d="M0 0 C0.66 0 1.32 0 2 0 C5.91630417 8.03156496 7.01311133 17.40095301 4.36425781 26.08398438 C1.94559586 32.15890159 -1.13616473 37.55583193 -6 42 C-6.66 41.67 -7.32 41.34 -8 41 C-7.61328125 40.55011719 -7.2265625 40.10023438 -6.828125 39.63671875 C1.22995468 29.6837936 3.19131259 19.68886431 2 7 C1.44037956 4.61553028 0.74865258 2.33579605 0 0 Z " fill="#376473" transform="translate(141,148)"/>
<path d="M0 0 C3.37881434 1.39813007 5.15017878 2.82887791 7 6 C7.6875 9.25 7.6875 9.25 8 12 C8.99 12 9.98 12 11 12 C11.12375 11.030625 11.2475 10.06125 11.375 9.0625 C11.58125 8.051875 11.7875 7.04125 12 6 C14.6666419 4.66667905 16.16680303 5.32897967 19 6 C18.01 6.66 17.02 7.32 16 8 C15.67 8.99 15.34 9.98 15 11 C17.97 11.33 20.94 11.66 24 12 C24 12.33 24 12.66 24 13 C17.73 13 11.46 13 5 13 C4.01 10.03 3.02 7.06 2 4 C1.01 3.01 0.02 2.02 -1 1 C-0.67 0.67 -0.34 0.34 0 0 Z " fill="#ABCA9B" transform="translate(236,254)"/>
<path d="M0 0 C2.64 0 5.28 0 8 0 C8 3.3 8 6.6 8 10 C5.36 10 2.72 10 0 10 C0 6.7 0 3.4 0 0 Z " fill="#435E6F" transform="translate(133,247)"/>
<path d="M0 0 C7.26 0 14.52 0 22 0 C22 1.98 22 3.96 22 6 C18.89359865 5.38578278 15.79037375 4.75677646 12.6875 4.125 C11.36588867 3.86396484 11.36588867 3.86396484 10.01757812 3.59765625 C9.17001953 3.42363281 8.32246094 3.24960937 7.44921875 3.0703125 C6.66893311 2.91320801 5.88864746 2.75610352 5.0847168 2.59423828 C3 2 3 2 0 0 Z " fill="#8CCAAD" transform="translate(127,269)"/>
<path d="M0 0 C3.96 0.33 7.92 0.66 12 1 C12 1.33 12 1.66 12 2 C9.36 2 6.72 2 4 2 C4 5.3 4 8.6 4 12 C2.68 12 1.36 12 0 12 C0 8.04 0 4.08 0 0 Z " fill="#BDC2CA" transform="translate(129,245)"/>
<path d="M0 0 C4.81203008 4.21052632 4.81203008 4.21052632 5.625 7.625 C5 10 5 10 0 13 C0 8.71 0 4.42 0 0 Z " fill="#BBDF93" transform="translate(244,246)"/>
<path d="M0 0 C0.33 0 0.66 0 1 0 C1.35095944 3.77281397 1.24849965 5.59175057 -0.75 8.875 C-3 11 -3 11 -7 11 C-6.40501518 7.63833578 -5.25635842 5.78840322 -3 3.25 C-2.46375 2.63640625 -1.9275 2.0228125 -1.375 1.390625 C-0.694375 0.70226562 -0.694375 0.70226562 0 0 Z " fill="#82C764" transform="translate(227,87)"/>
<path d="M0 0 C1.67542976 0.28604898 3.34385343 0.61781233 5 1 C5 2.65 5 4.3 5 6 C3.34385343 6.38218767 1.67542976 6.71395102 0 7 C-1 6 -1 6 -1.125 3.5 C-1 1 -1 1 0 0 Z " fill="#225364" transform="translate(68,295)"/>
<path d="M0 0 C1.32 0 2.64 0 4 0 C4 2.64 4 5.28 4 8 C2.68 8 1.36 8 0 8 C0 5.36 0 2.72 0 0 Z " fill="#C1C5CF" transform="translate(135,248)"/>
<path d="M0 0 C2.64 0.33 5.28 0.66 8 1 C8.33 2.32 8.66 3.64 9 5 C2.25 4.125 2.25 4.125 0 3 C0 2.01 0 1.02 0 0 Z " fill="#2D5F6E" transform="translate(231,148)"/>
<path d="M0 0 C2.97 0 5.94 0 9 0 C9 1.32 9 2.64 9 4 C6.03 3.67 3.06 3.34 0 3 C0 2.01 0 1.02 0 0 Z " fill="#2D5F6F" transform="translate(231,204)"/>
<path d="M0 0 C0.33 0 0.66 0 1 0 C1 2.64 1 5.28 1 8 C-2.3 7.34 -5.6 6.68 -9 6 C-7 4 -7 4 -3.9375 3 C-0.87849194 2.34247444 -0.87849194 2.34247444 0 0 Z " fill="#77C6A2" transform="translate(62,119)"/>
<path d="M0 0 C2.00720923 0.28674418 4.0085944 0.61866701 6 1 C5.01 1.66 4.02 2.32 3 3 C1.80767387 5.05003955 1.80767387 5.05003955 1 7 C0.01 7 -0.98 7 -2 7 C-1.125 1.125 -1.125 1.125 0 0 Z " fill="#C2DE97" transform="translate(249,259)"/>
<path d="M0 0 C1.98 0.66 3.96 1.32 6 2 C5.67 3.32 5.34 4.64 5 6 C3.35 6 1.7 6 0 6 C0 4.02 0 2.04 0 0 Z " fill="#B1DB8E" transform="translate(244,221)"/>
<path d="M0 0 C0.99 0.33 1.98 0.66 3 1 C2.34 3.31 1.68 5.62 1 8 C2.65 8 4.3 8 6 8 C6 8.33 6 8.66 6 9 C4.02 9 2.04 9 0 9 C0 6.03 0 3.06 0 0 Z " fill="#A4D581" transform="translate(244,204)"/>
</svg>
